<?xml version="1.0"?>
<svg width="40" height="40" xmlns="http://www.w3.org/2000/svg" xmlns:svg="http://www.w3.org/2000/svg" version="1.1" xml:space="preserve">
 <g class="layer">
  <title>Layer 1</title>
  <g id="SVGRepo_bgCarrier" stroke-width="0"/>
  <g id="SVGRepo_tracerCarrier" stroke-linecap="round" stroke-linejoin="round"/>
  <g id="SVGRepo_iconCarrier" transform="matrix(0.0707526 0 0 0.0698366 19.6026 11.4549)">
   <style type="text/css">.st0{fill:#947d5e;}</style>
   <g id="svg_1">
    <path class="st0" d="m229.85,-37.21c-5.02,-6.13 -12.53,-9.7 -20.46,-9.7l-344.5,0l-11.73,-40.28l-0.01,-0.03c-5.39,-18.03 -20.17,-31.68 -38.56,-35.62l-42.1,-9.03c-7.14,-1.53 -14.16,3.02 -15.69,10.15c-1.53,7.12 3.02,14.15 10.15,15.68l42.1,9.03c8.98,1.91 16.18,8.58 18.81,17.36l76.96,264.38c-1.74,0.81 -3.4,1.7 -5.02,2.65c-8.3,4.95 -14.96,11.88 -19.42,19.99c-4.26,7.71 -6.54,16.43 -6.74,25.43l-0.04,0l0,1.37l0.03,0c0.18,7.02 1.67,13.78 4.27,19.94c4.17,9.84 11.09,18.16 19.81,24.06c8.73,5.9 19.32,9.36 30.61,9.35l247.54,0c7.3,0 13.21,-5.91 13.21,-13.2c0,-7.3 -5.91,-13.22 -13.21,-13.22l-247.54,0c-3.95,0 -7.64,-0.78 -11.01,-2.21c-5.06,-2.13 -9.41,-5.74 -12.48,-10.28c-2.93,-4.34 -4.64,-9.48 -4.8,-15.11c0.16,-6.7 2.29,-12.53 6.05,-17.18c1.95,-2.41 4.34,-4.52 7.26,-6.26c2.88,-1.72 6.27,-3.07 10.24,-3.94l248.82,-40.5c16.27,-2.66 29.19,-15.08 32.47,-31.22l30.43,-149.61l0,-0.02c0.36,-1.74 0.55,-3.5 0.54,-5.26c0,-6.03 -2.07,-11.95 -5.96,-16.72l-0.03,0z" id="svg_2"/>
    <path class="st0" d="m-41.14,309c-5.79,-3.94 -12.86,-6.24 -20.37,-6.24c-5.01,0 -9.83,1.02 -14.2,2.88c-6.55,2.77 -12.09,7.38 -16.02,13.19c-3.93,5.79 -6.24,12.86 -6.23,20.38c0,5 1.02,9.83 2.87,14.19c2.78,6.56 7.38,12.1 13.19,16.03c5.8,3.92 12.87,6.24 20.39,6.23c5,0.01 9.82,-1.02 14.18,-2.88c6.57,-2.78 12.1,-7.37 16.03,-13.18c3.92,-5.81 6.23,-12.88 6.23,-20.39c0,-5.01 -1.03,-9.82 -2.87,-14.18c-2.78,-6.56 -7.38,-12.1 -13.2,-16.03zm-6.83,35.93c-1.11,2.62 -2.99,4.88 -5.34,6.47c-2.36,1.59 -5.13,2.5 -8.2,2.51c-2.06,0 -3.96,-0.42 -5.71,-1.15c-2.63,-1.11 -4.9,-3 -6.49,-5.35c-1.58,-2.35 -2.49,-5.13 -2.5,-8.2c0.01,-2.06 0.42,-3.96 1.16,-5.71c1.1,-2.63 2.98,-4.89 5.34,-6.48c2.36,-1.59 5.12,-2.5 8.2,-2.51c2.05,0.01 3.96,0.42 5.7,1.15c2.63,1.11 4.9,2.99 6.49,5.35c1.59,2.35 2.49,5.12 2.49,8.2c0,2.06 -0.4,3.97 -1.14,5.72z" id="svg_3"/>
    <path class="st0" d="m158.76,309c-5.8,-3.94 -12.87,-6.24 -20.38,-6.24c-5,0 -9.84,1.02 -14.19,2.88c-6.56,2.77 -12.1,7.38 -16.03,13.19c-3.94,5.79 -6.24,12.86 -6.23,20.38c0,5 1.01,9.83 2.87,14.19c2.78,6.56 7.38,12.1 13.19,16.03c5.8,3.92 12.88,6.24 20.39,6.23c5,0.01 9.82,-1.02 14.18,-2.88c6.56,-2.78 12.1,-7.37 16.03,-13.18c3.93,-5.81 6.23,-12.88 6.23,-20.39c0,-5.01 -1.02,-9.82 -2.87,-14.18c-2.78,-6.56 -7.39,-12.1 -13.19,-16.03zm-6.84,35.93c-1.11,2.62 -2.99,4.88 -5.34,6.47c-2.36,1.59 -5.12,2.5 -8.2,2.51c-2.06,0 -3.98,-0.42 -5.72,-1.15c-2.62,-1.11 -4.89,-3 -6.47,-5.35c-1.59,-2.35 -2.51,-5.13 -2.51,-8.2c0,-2.06 0.42,-3.96 1.15,-5.71c1.1,-2.63 2.99,-4.89 5.33,-6.48c2.36,-1.59 5.14,-2.5 8.22,-2.51c2.05,0.01 3.96,0.42 5.71,1.15c2.63,1.11 4.88,2.99 6.48,5.35c1.58,2.35 2.5,5.12 2.5,8.2c0,2.06 -0.41,3.97 -1.15,5.72z" id="svg_4"/>
   </g>
  </g>
 </g>
</svg>