<?xml version="1.0"?>
<svg width="44.16" height="44.16" xmlns="http://www.w3.org/2000/svg" xmlns:svg="http://www.w3.org/2000/svg" version="1.1" xml:space="preserve">
 <g class="layer">
  <title>Layer 1</title>
  <g id="svg_1">
   <path d="m30.16,16.74l-12.66,0l-0.36,-2.56l-3.21,0c-0.52,0 -0.94,0.51 -0.94,1.14l0,1.14l2.56,0l1.65,11.67c0.03,0.26 0.24,0.47 0.45,0.47l11.09,0c0.52,0 0.94,-0.51 0.94,-1.14l0,-1.14l-10.83,0l-0.23,-1.61l8.56,0c1.03,0 2.01,-1.01 2.18,-2.24l0.78,-5.72l0.02,-0.01z" fill="#010002" id="svg_2"/>
   <circle cx="20.57" cy="31.96" fill="#010002" id="svg_3" r="1.62"/>
   <path d="m24.56,31.96c0,1.09 0.73,1.97 1.62,1.97c0.9,0 1.62,-0.88 1.62,-1.97c0,-1.09 -0.72,-1.97 -1.62,-1.97c-0.89,0 -1.62,0.88 -1.62,1.97z" fill="#010002" id="svg_4"/>
  </g>
 </g>
</svg>